<svg xmlns="http://www.w3.org/2000/svg" viewBox="0 0 156.12 94.77"><defs><style>.cls-1{fill:#f6f6f6;}</style></defs><g id="Ebene_2" data-name="Ebene 2"><g id="Ebene_1-2" data-name="Ebene 1"><polygon class="cls-1" points="93.5 93.58 77.75 93.58 68.25 44.21 49.81 94.77 44 94.77 25.56 44.21 15.69 93.58 0 93.58 18.44 1.96 27.06 1.96 46.87 63.64 66.25 1.96 74.81 1.96 76.02 7.87 79.45 24.7 83.84 46.23 93.21 92.14 93.5 93.58"/><path class="cls-1" d="M150.29,74.32q-8.68,15-28,18.94a65.19,65.19,0,0,1-18.38,1.08c-1.66-.14-3.25-.33-4.78-.6L89.79,47.83l18.06-3.72,2.8,13.59L98.23,60.26l3.63,17.63q6.47,3.51,15,1.76Q129.76,77,135.48,66.87t2.79-24.43Q135.16,27.38,125.66,20t-22.72-4.67a27.44,27.44,0,0,0-9.59,4.56,32.77,32.77,0,0,0-7.66,6.78l-.29-.36L82,9.47A39.62,39.62,0,0,1,99.66,1.25Q120.48-3,135.45,7.41T154.71,38.6Q159,59.36,150.29,74.32Z"/></g></g></svg>